<svg xmlns="http://www.w3.org/2000/svg" xmlns:xlink="http://www.w3.org/1999/xlink" viewBox="0 0 550 142.8232">
  <defs>
    <linearGradient id="linear-gradient" x1="31.057" y1="97.4692" x2="117.092" y2="45.0873" gradientUnits="userSpaceOnUse">
      <stop offset="0" stop-color="#6007ff"/>
      <stop offset="1" stop-color="#00ceff"/>
    </linearGradient>
    <linearGradient id="linear-gradient-2" x1="32.683" y1="100.6987" x2="119.587" y2="44.1224" xlink:href="#linear-gradient"/>
  </defs>
  <title>polygonia-logo-full-colour-rgb</title>
  <g style="isolation: isolate">
    <g id="full-rgb">
      <g>
        <g id="type">
          <path id="type_CompoundPathItem_" data-name="type &lt;CompoundPathItem&gt;" d="M163.6707,38.5426H146.4048v65.7263h9.0624V80.1341h8.2991c14.5,0,25.47-6.2,25.47-21.2725C189.2362,45.0293,179.506,38.5426,163.6707,38.5426ZM163.3849,72.98h-7.9177V45.6018h8.1084c9.73,0,16.026,3.5294,16.026,13.355C179.6016,70.1179,173.115,72.98,163.3849,72.98Z" style="fill: #000053"/>
          <path id="type_CompoundPathItem_2" data-name="type &lt;CompoundPathItem&gt;" d="M215.4689,52.8516c-14.3086,0-22.5127,10.78-22.5127,26.3288,0,15.9308,8.1084,26.2334,22.4177,26.2334,14.2135,0,22.4175-10.78,22.4175-26.3288C237.7914,63.1541,229.7781,52.8516,215.4689,52.8516Zm-.095,45.5027c-8.3948,0-12.9739-6.1052-12.9739-19.1739,0-13.1644,4.6748-19.27,13.0689-19.27,8.3,0,12.878,6.1052,12.878,19.1742C228.3469,92.2491,223.7686,98.3543,215.3739,98.3543Z" style="fill: #000053"/>
          <path id="type_PathItem_" data-name="type &lt;PathItem&gt;" d="M287.5593,97.8776,274.1085,53.9964H264.76l16.8844,50.2725h2.9573c-2.8616,7.8223-5.7238,11.7332-15.9311,13.45l.9542,6.8683c13.9279-1.5261,19.8423-9.3486,23.3716-20.033l16.7893-50.5583h-9.0624Z" style="fill: #000053"/>
          <path id="type_CompoundPathItem_3" data-name="type &lt;CompoundPathItem&gt;" d="M354.9051,48.3679c-5.9147,2.6715-10.4937,4.77-22.99,4.4837-11.0657,0-19.3654,7.25-19.3654,17.5526,0,6.4865,2.6715,10.8747,8.49,13.9272-3.6249,2.3849-5.5331,5.6285-5.5331,8.8719,0,5.0556,4.0068,9.54,12.9736,9.54h7.9177c6.2959,0,10.1117,2.3846,10.1117,7.1541,0,5.0561-3.8158,7.8225-14.6906,7.8225-11.0656,0-13.6415-2.6709-13.6415-8.3946h-7.9177c0,10.2071,5.1517,15.2629,21.5592,15.2629,15.549,0,23.5623-5.5328,23.5623-15.2629,0-8.0132-6.8686-13.9275-17.1708-13.9275h-8.0133c-5.1512,0-6.5822-1.8127-6.5822-4.1019a6.06,6.06,0,0,1,2.48-4.6743,20.3466,20.3466,0,0,0,6.3914.954c12.02,0,19.1741-7.1547,19.1741-17.0757,0-5.8189-2.9572-10.0162-8.8713-12.6872,5.7232,0,10.493-.1906,14.69-1.5263ZM332.106,81.7559c-6.8686,0-10.5886-4.6743-10.5886-11.3517,0-6.5822,3.6249-11.2568,10.398-11.2568,7.1542,0,10.7791,3.8158,10.7791,11.1614C342.6945,77.5586,338.974,81.7559,332.106,81.7559Z" style="fill: #000053"/>
          <path id="type_CompoundPathItem_4" data-name="type &lt;CompoundPathItem&gt;" d="M381.6136,52.8516c-14.3086,0-22.5127,10.78-22.5127,26.3288,0,15.9308,8.1084,26.2334,22.4177,26.2334,14.2135,0,22.4176-10.78,22.4176-26.3288C403.9362,63.1541,395.9228,52.8516,381.6136,52.8516Zm-.095,45.5027c-8.3948,0-12.9737-6.1052-12.9737-19.1739,0-13.1644,4.6746-19.27,13.0687-19.27,8.3,0,12.8782,6.1052,12.8782,19.1742C394.4918,92.2491,389.9133,98.3543,381.5186,98.3543Z" style="fill: #000053"/>
          <path id="type_PathItem_2" data-name="type &lt;PathItem&gt;" d="M438.132,52.8516a18.2365,18.2365,0,0,0-15.3583,8.5855l-.7628-7.4407h-7.5363v50.2725h8.7761V68.5918C426.59,63.25,430.4051,59.72,436.0338,59.72c4.8649,0,7.9178,2.194,7.9178,9.73v34.8186h8.7761V68.21C452.7277,58.6705,447.3853,52.8516,438.132,52.8516Z" style="fill: #000053"/>
          <rect id="type_PathItem_3" data-name="type &lt;PathItem&gt;" x="465.8649" y="53.9964" width="8.7761" height="50.2725" style="fill: #000053"/>
          <path id="type_CompoundPathItem_5" data-name="type &lt;CompoundPathItem&gt;" d="M523.7677,92.5357v-22.99c0-10.4931-5.5325-16.6938-17.6478-16.6938a49.2181,49.2181,0,0,0-17.3615,3.4343l2.194,6.3913a45.0045,45.0045,0,0,1,13.5458-2.671c6.9642,0,10.4935,2.671,10.4935,9.921v3.72h-7.7271c-14.0227,0-22.1311,5.8189-22.1311,16.5984,0,8.9671,6.0095,15.1678,16.0261,15.1678,6.105,0,11.4475-2.29,14.9767-7.5362,1.5263,4.96,4.77,6.9635,9.8254,7.5362l2.0038-6.1053C525.39,98.3543,523.7677,96.9234,523.7677,92.5357Zm-8.776-1.5266c-2.8617,5.2467-6.6778,7.8225-11.829,7.8225-5.7232,0-8.68-3.148-8.68-9.0628,0-6.868,4.6742-10.3023,13.9273-10.3023h6.5822Z" style="fill: #000053"/>
          <polygon id="type_PathItem_4" data-name="type &lt;PathItem&gt;" points="474.641 37.392 465.865 38.441 465.865 46.693 474.641 46.693 474.641 37.392" style="fill: #000053"/>
          <path id="type_PathItem_5" data-name="type &lt;PathItem&gt;" d="M259.2278,98.1637c-2.29,0-3.148-1.3355-3.148-4.0067V37.4932l-8.776,1.0494V94.3479c0,7.1546,4.1019,11.0659,10.4934,11.0659a14.7457,14.7457,0,0,0,6.9637-1.7173l-2.2895-6.1052A8.5539,8.5539,0,0,1,259.2278,98.1637Z" style="fill: #000053"/>
        </g>
        <g id="logoMark">
          <path id="logoMark_PathItem_" data-name="logoMark &lt;PathItem&gt;" d="M116.9226,36.4389,82.6091,16.6276a17.5089,17.5089,0,0,0-17.5072,0L30.788,36.4389a17.5068,17.5068,0,0,0-8.7535,15.1616V91.2224a17.5085,17.5085,0,0,0,8.7534,15.162l34.314,19.8108a17.5059,17.5059,0,0,0,17.5073,0l34.3136-19.8106a17.5094,17.5094,0,0,0,8.7535-15.1621V51.6005A17.5072,17.5072,0,0,0,116.9226,36.4389Z" style="fill: url(#linear-gradient)"/>
          <path id="logoMark_PathItem_2" data-name="logoMark &lt;PathItem&gt;" d="M116.1271,93.7053a7.96,7.96,0,0,1-3.9794,6.8924l-34.3133,19.81a7.9558,7.9558,0,0,1-7.9576,0L36.3581,101.0567,69.0808,82.1643V101.057a4.7747,4.7747,0,1,0,9.5494,0V82.1648l16.3607,9.446a4.7747,4.7747,0,1,0,4.7748-8.27L83.4044,73.8946l16.3612-9.4461a4.7747,4.7747,0,1,0-4.7746-8.27L78.63,65.6244V46.7324a4.7747,4.7747,0,0,0-9.5494,0V65.6247L52.72,56.1785a4.7747,4.7747,0,1,0-4.7748,8.27l16.3609,9.4461L31.5838,92.7865V54.0835a7.957,7.957,0,0,1,3.9788-6.8916l34.314-19.8113a7.9584,7.9584,0,0,1,7.9578,0l34.3137,19.8112a7.9578,7.9578,0,0,1,3.979,6.8916Z" style="opacity: 0.5;mix-blend-mode: multiply;fill: url(#linear-gradient-2)"/>
          <path id="logoMark_PathItem_3" data-name="logoMark &lt;PathItem&gt;" d="M116.1271,91.2224a7.96,7.96,0,0,1-3.9794,6.8924l-34.3133,19.81a7.9561,7.9561,0,0,1-7.9576,0L36.3581,98.5737,69.0808,79.6814V98.574a4.7747,4.7747,0,1,0,9.5494,0V79.6818l16.3607,9.4461a4.7747,4.7747,0,0,0,4.7748-8.27L83.4044,71.4116l16.3612-9.446a4.7747,4.7747,0,0,0-4.7746-8.27L78.63,63.1414V44.2494a4.7747,4.7747,0,1,0-9.5494,0V63.1417L52.72,53.6955a4.7748,4.7748,0,0,0-4.7748,8.27l16.3609,9.446L31.5838,90.3035V51.6005a7.9567,7.9567,0,0,1,3.9788-6.8915l34.314-19.8114a7.9584,7.9584,0,0,1,7.9578,0l34.3137,19.8112a7.958,7.958,0,0,1,3.979,6.8916Z" style="fill: #fff"/>
        </g>
      </g>
    </g>
  </g>
</svg>
